# xmcd CD database file
# Copyright (C) 1993-1998 Ti Kan
#
# Track frame offsets:
#	150
#	17522
#	31152
#	45522
#	61457
#	76477
#	93652
#	104602
#	119372
#	137280
#	150942
#	170522
#	187642
#	198157
#
# Disc length: 2832 seconds
#
# Revision: 2
# Processed by: cddbd v1.4b41PL1 Copyright (c) Steve Scherf et al.
# Submitted via: NotifyCDPlayer(CDDB) 1.51.3
#
DISCID=a20b0e0e
DTITLE=Ricky Skaggs - Greatest Hits
DYEAR=1900
DGENRE=
TTITLE0=Country Boy
TTITLE1=I Wouldn't Change You If I Could
TTITLE2=Highway Forty Blues
TTITLE3=Honey (Open That Door)
TTITLE4=Don't Cheat In Our Hometown
TTITLE5=Waitin' For The Sun To Shine
TTITLE6=Uncle Pen
TTITLE7=Haertbroke
TTITLE8=You've Got A Lover
TTITLE9=Crying My Heart Out Over You
TTITLE10=You Make Me Feel Like A Man
TTITLE11=Cajun Moon
TTITLE12=I Don't Care
TTITLE13=Don't Get Above Your Raising
EXTD=
EXTT0=
EXTT1=
EXTT2=
EXTT3=
EXTT4=
EXTT5=
EXTT6=
EXTT7=
EXTT8=
EXTT9=
EXTT10=
EXTT11=
EXTT12=
EXTT13=
PLAYORDER=
